<?xml version="1.0" encoding="UTF-8"?>
<svg width="59px" height="58px" viewBox="0 0 59 58" version="1.1" xmlns="http://www.w3.org/2000/svg" xmlns:xlink="http://www.w3.org/1999/xlink">
    <title>Group 16</title>
    <defs>
        <polygon id="path-1" points="0.22321152 0.52094976 29.2368384 0.52094976 29.2368384 25.0560582 0.22321152 25.0560582"></polygon>
        <polygon id="path-3" points="0 0.21221376 22.4291021 0.21221376 22.4291021 38.0928 0 38.0928"></polygon>
        <polygon id="path-5" points="0.20035584 0.48144384 47.0544384 0.48144384 47.0544384 28.4218982 0.20035584 28.4218982"></polygon>
    </defs>
    <g id="Symbols" stroke="none" stroke-width="1" fill="none" fill-rule="evenodd">
        <g id="BOTTOM" transform="translate(-210.000000, -93.000000)">
            <g id="Group-16" transform="translate(210.000000, 93.000000)">
                <path d="M10.6832486,18.7775386 C11.6447846,17.8885018 10.6451558,17.6746906 10.6451558,17.1180442 C10.6451558,10.6748314 14.2602854,6.61856256 15.101399,0.75534336 C6.61776384,1.82685696 6.144e-05,7.65751296 6.144e-05,16.4194714 L6.144e-05,27.0547354 C4.53126144,25.6047514 8.08556544,22.6064794 10.6832486,18.7775386" id="Fill-1" fill="#D84390"></path>
                <g id="Group-5" transform="translate(28.262400, 25.323602)">
                    <mask id="mask-2" fill="white">
                        <use xlink:href="#path-1"></use>
                    </mask>
                    <g id="Clip-4"></g>
                    <path d="M29.2370227,17.471017 L29.2370227,3.23106816 C28.9531699,1.98445056 28.2330931,0.81831936 26.8181299,0.52094976 C24.2769715,6.28279296 15.4117939,10.8649882 0.22321152,14.2675354 C1.63448832,21.2428186 5.77247232,24.8358298 12.6365491,25.0459546 C15.3171763,25.1282842 17.9695411,24.7190938 20.3706163,23.3895322 C22.9517107,21.9604378 25.7275699,20.3359642 29.2370227,17.471017" id="Fill-3" fill="#A83689" mask="url(#mask-2)"></path>
                </g>
                <path d="M44.1419366,22.2590362 C44.246999,18.8497306 42.876887,17.1011482 40.035287,17.0145178 C37.3546598,16.9328026 34.7416166,18.6389914 32.1943142,22.1336986 C29.6476262,25.6284058 28.2855014,30.235177 28.109783,35.9533978 C38.5859174,33.7151386 43.9293542,29.1501466 44.1419366,22.2590362" id="Fill-6" fill="#A83689"></path>
                <path d="M10.670039,18.752041 C10.9182566,24.4972954 10.7984486,30.8882842 14.9948006,34.7350426 C16.4263526,29.9021722 19.2599654,25.4533018 23.4968678,21.387817 C26.555351,18.4534426 29.7520742,16.2766234 33.0851942,14.8542874 C31.3697894,13.8565018 29.8835558,14.048809 28.1970278,14.048809 C21.9111014,14.048809 15.8850662,16.0382362 10.670039,18.752041" id="Fill-8" fill="#A83689"></path>
                <g id="Group-12" transform="translate(0.000000, 18.565202)">
                    <mask id="mask-4" fill="white">
                        <use xlink:href="#path-3"></use>
                    </mask>
                    <g id="Clip-11"></g>
                    <path d="M17.2607693,38.0930458 L22.4291021,38.0930458 C21.0294989,37.351465 19.7589197,36.4353946 18.6241229,35.3356186 C15.3278669,32.1419674 13.7574605,28.0230298 13.9122893,22.9800346 C13.9847885,20.6311834 14.3454413,18.3609754 14.9948621,16.1694106 C12.4610765,11.3691034 10.9312205,5.95685376 10.6830029,0.21221376 C6.63840768,2.31714816 3.02266368,5.13048576 -0.00018432,8.48941056 L-0.00018432,20.8314778 C-0.00018432,30.3251866 7.76767488,38.0930458 17.2607693,38.0930458" id="Fill-10" fill="#D50969" mask="url(#mask-4)"></path>
                </g>
                <g id="Group-15" transform="translate(10.444800, 0.133202)">
                    <mask id="mask-6" fill="white">
                        <use xlink:href="#path-5"></use>
                    </mask>
                    <g id="Clip-14"></g>
                    <path d="M0.23844864,18.6443366 C5.45347584,15.9305318 11.3793638,14.3945318 17.6646758,14.3945318 C19.3518182,14.3945318 21.011927,14.506967 22.640087,14.7207782 C26.0174438,13.2800102 29.5348838,12.6133862 33.1936358,12.725207 C36.970967,12.8413286 39.9704678,13.7856614 42.1927526,15.5600486 C44.4138086,17.3350502 45.483479,19.606487 45.397463,22.377431 C45.3624422,23.529431 45.1080806,24.6402662 44.635607,25.7111654 C45.4847078,26.5756262 46.2920294,27.4794086 47.0544998,28.4218982 L47.0544998,0.48144384 L6.81621504,0.48144384 C6.08446464,0.48144384 5.36500224,0.53243904 4.65659904,0.62214144 C1.81377024,5.93178624 0.20035584,10.5416294 0.20035584,16.9848422 C0.20035584,17.5414886 0.21448704,18.0938342 0.23844864,18.6443366" id="Fill-13" fill="#AC0F56" mask="url(#mask-6)"></path>
                </g>
            </g>
        </g>
    </g>
</svg>